<?xml version="1.0" encoding="UTF-8" standalone="no"?>
<!DOCTYPE svg PUBLIC "-//W3C//DTD SVG 1.1//EN" "http://www.w3.org/Graphics/SVG/1.1/DTD/svg11.dtd">
<svg version="1.1" xmlns="http://www.w3.org/2000/svg" xmlns:xlink="http://www.w3.org/1999/xlink" preserveAspectRatio="xMidYMid meet" viewBox="0 0 640 640" width="640" height="640"><defs><path d="M406.21 0.03L406.64 0.08L407.07 0.14L407.49 0.21L407.9 0.31L408.31 0.42L408.71 0.54L409.1 0.68L409.49 0.84L409.87 1.01L410.24 1.19L410.6 1.39L410.95 1.6L411.3 1.82L411.63 2.06L411.96 2.31L412.28 2.57L412.58 2.84L412.88 3.12L413.16 3.42L413.43 3.72L413.7 4.04L413.94 4.37L414.18 4.7L414.4 5.05L414.61 5.4L414.81 5.76L415 6.14L415.16 6.51L415.32 6.9L415.46 7.29L415.58 7.7L415.69 8.1L415.79 8.52L415.86 8.94L415.92 9.36L415.97 9.79L415.99 10.23L416 10.66L416 224L629.34 224L629.78 224.01L630.21 224.03L630.64 224.08L631.07 224.14L631.49 224.21L631.9 224.31L632.31 224.42L632.71 224.54L633.1 224.68L633.49 224.84L633.87 225.01L634.24 225.19L634.6 225.39L634.95 225.6L635.3 225.82L635.63 226.06L635.96 226.31L636.28 226.57L636.58 226.84L636.88 227.12L637.16 227.42L637.43 227.72L637.7 228.04L637.94 228.37L638.18 228.7L638.4 229.05L638.61 229.4L638.81 229.76L639 230.14L639.16 230.51L639.32 230.9L639.46 231.29L639.58 231.7L639.69 232.1L639.79 232.52L639.86 232.94L639.92 233.36L639.97 233.79L639.99 234.23L640 234.66L640 405.33L639.99 405.77L639.97 406.21L639.92 406.64L639.86 407.06L639.79 407.48L639.69 407.89L639.58 408.3L639.46 408.7L639.32 409.1L639.16 409.48L639 409.86L638.81 410.23L638.61 410.59L638.4 410.95L638.18 411.29L637.94 411.63L637.7 411.96L637.43 412.27L637.16 412.58L636.88 412.87L636.58 413.16L636.28 413.43L635.96 413.69L635.63 413.94L635.3 414.18L634.95 414.4L634.6 414.61L634.24 414.81L633.87 414.99L633.49 415.16L633.1 415.31L632.71 415.45L632.31 415.58L631.9 415.69L631.49 415.78L631.07 415.86L630.64 415.92L630.21 415.96L629.78 415.99L629.34 416L416 416L416 629.33L415.99 629.77L415.97 630.21L415.92 630.64L415.86 631.06L415.79 631.48L415.69 631.89L415.58 632.3L415.46 632.7L415.32 633.1L415.16 633.48L415 633.86L414.81 634.23L414.61 634.59L414.4 634.95L414.18 635.29L413.94 635.63L413.7 635.96L413.43 636.27L413.16 636.58L412.88 636.87L412.58 637.16L412.28 637.43L411.96 637.69L411.63 637.94L411.3 638.18L410.95 638.4L410.6 638.61L410.24 638.81L409.87 638.99L409.49 639.16L409.1 639.31L408.71 639.45L408.31 639.58L407.9 639.69L407.49 639.78L407.07 639.86L406.64 639.92L406.21 639.96L405.78 639.99L405.34 640L234.67 640L234.23 639.99L233.8 639.96L233.37 639.92L232.94 639.86L232.52 639.78L232.11 639.69L231.7 639.58L231.3 639.45L230.91 639.31L230.52 639.16L230.14 638.99L229.77 638.81L229.41 638.61L229.05 638.4L228.71 638.18L228.37 637.94L228.05 637.69L227.73 637.43L227.42 637.16L227.13 636.87L226.85 636.58L226.57 636.27L226.31 635.96L226.06 635.63L225.83 635.29L225.6 634.95L225.39 634.59L225.19 634.23L225.01 633.86L224.84 633.48L224.69 633.1L224.55 632.7L224.42 632.3L224.31 631.89L224.22 631.48L224.14 631.06L224.08 630.64L224.04 630.21L224.01 629.77L224 629.33L224 416L10.67 416L10.23 415.99L9.8 415.96L9.37 415.92L8.94 415.86L8.52 415.78L8.11 415.69L7.7 415.58L7.3 415.45L6.91 415.31L6.52 415.16L6.14 414.99L5.77 414.81L5.41 414.61L5.05 414.4L4.71 414.18L4.37 413.94L4.05 413.69L3.73 413.43L3.42 413.16L3.13 412.87L2.85 412.58L2.57 412.27L2.31 411.96L2.06 411.63L1.83 411.29L1.6 410.95L1.39 410.59L1.19 410.23L1.01 409.86L0.84 409.48L0.69 409.1L0.55 408.7L0.42 408.3L0.31 407.89L0.22 407.48L0.14 407.06L0.08 406.64L0.04 406.21L0.01 405.77L0 405.33L0 234.66L0.01 234.23L0.04 233.79L0.08 233.36L0.14 232.94L0.22 232.52L0.31 232.1L0.42 231.7L0.55 231.29L0.69 230.9L0.84 230.51L1.01 230.14L1.19 229.76L1.39 229.4L1.6 229.05L1.83 228.7L2.06 228.37L2.31 228.04L2.57 227.72L2.85 227.42L3.13 227.12L3.42 226.84L3.73 226.57L4.05 226.31L4.37 226.06L4.71 225.82L5.05 225.6L5.41 225.39L5.77 225.19L6.14 225.01L6.52 224.84L6.91 224.68L7.3 224.54L7.7 224.42L8.11 224.31L8.52 224.21L8.94 224.14L9.37 224.08L9.8 224.03L10.23 224.01L10.67 224L224 224L224 10.66L224.01 10.23L224.04 9.79L224.08 9.36L224.14 8.94L224.22 8.52L224.31 8.1L224.42 7.7L224.55 7.29L224.69 6.9L224.84 6.51L225.01 6.14L225.19 5.76L225.39 5.4L225.6 5.05L225.83 4.7L226.06 4.37L226.31 4.04L226.57 3.72L226.85 3.42L227.13 3.12L227.42 2.84L227.73 2.57L228.05 2.31L228.37 2.06L228.71 1.82L229.05 1.6L229.41 1.39L229.77 1.19L230.14 1.01L230.52 0.84L230.91 0.68L231.3 0.54L231.7 0.42L232.11 0.31L232.52 0.21L232.94 0.14L233.37 0.08L233.8 0.03L234.23 0.01L234.67 0L405.34 0L405.78 0.01L406.21 0.03Z" id="e38xZ78n9b"></path><clipPath id="clipaiyN2D837"><use xlink:href="#e38xZ78n9b" opacity="1"></use></clipPath></defs><g><g><g><use xlink:href="#e38xZ78n9b" opacity="1" fill="#99eeff" fill-opacity="1"></use><g clip-path="url(#clipaiyN2D837)"><use xlink:href="#e38xZ78n9b" opacity="1" fill-opacity="0" stroke="#99ffff" stroke-width="20" stroke-opacity="1"></use></g></g></g></g></svg>