<?xml version="1.0" encoding="UTF-8" standalone="no"?>
<!DOCTYPE svg PUBLIC "-//W3C//DTD SVG 1.1//EN" "http://www.w3.org/Graphics/SVG/1.1/DTD/svg11.dtd">
<svg version="1.1" xmlns="http://www.w3.org/2000/svg" xmlns:xlink="http://www.w3.org/1999/xlink" preserveAspectRatio="xMidYMid meet" viewBox="0 0 640 640" width="640" height="640"><defs><path d="M406.21 0.03L406.64 0.07L407.06 0.14L407.48 0.21L407.89 0.31L408.3 0.41L408.7 0.54L409.1 0.68L409.48 0.83L409.86 1L410.23 1.19L410.59 1.38L410.95 1.59L411.29 1.82L411.63 2.05L411.96 2.3L412.27 2.56L412.58 2.84L412.87 3.12L413.16 3.42L413.43 3.72L413.69 4.04L413.94 4.36L414.18 4.7L414.4 5.05L414.61 5.4L414.81 5.76L414.99 6.13L415.16 6.51L415.31 6.9L415.45 7.29L415.58 7.69L415.69 8.1L415.78 8.51L415.86 8.93L415.92 9.36L415.96 9.79L415.99 10.22L416 10.66L416 224L629.33 224L629.77 224L630.21 224.03L630.64 224.07L631.06 224.14L631.48 224.21L631.89 224.31L632.3 224.41L632.7 224.54L633.1 224.68L633.48 224.83L633.86 225L634.23 225.19L634.59 225.38L634.95 225.59L635.29 225.82L635.63 226.05L635.96 226.3L636.27 226.56L636.58 226.84L636.87 227.12L637.16 227.42L637.43 227.72L637.69 228.04L637.94 228.36L638.18 228.7L638.4 229.05L638.61 229.4L638.81 229.76L638.99 230.13L639.16 230.51L639.31 230.9L639.45 231.29L639.58 231.69L639.69 232.1L639.78 232.51L639.86 232.93L639.92 233.36L639.96 233.79L639.99 234.22L640 234.66L640 405.33L639.99 405.77L639.96 406.2L639.92 406.63L639.86 407.06L639.78 407.48L639.69 407.89L639.58 408.3L639.45 408.7L639.31 409.09L639.16 409.48L638.99 409.86L638.81 410.23L638.61 410.59L638.4 410.95L638.18 411.29L637.94 411.63L637.69 411.95L637.43 412.27L637.16 412.57L636.87 412.87L636.58 413.15L636.27 413.43L635.96 413.69L635.63 413.94L635.29 414.17L634.95 414.4L634.59 414.61L634.23 414.8L633.86 414.99L633.48 415.16L633.1 415.31L632.7 415.45L632.3 415.58L631.89 415.69L631.48 415.78L631.06 415.86L630.64 415.92L630.21 415.96L629.77 415.99L629.33 416L416 416L416 629.33L415.99 629.77L415.96 630.2L415.92 630.63L415.86 631.06L415.78 631.48L415.69 631.89L415.58 632.3L415.45 632.7L415.31 633.09L415.16 633.48L414.99 633.86L414.81 634.23L414.61 634.59L414.4 634.95L414.18 635.29L413.94 635.63L413.69 635.95L413.43 636.27L413.16 636.57L412.87 636.87L412.58 637.15L412.27 637.43L411.96 637.69L411.63 637.94L411.29 638.17L410.95 638.4L410.59 638.61L410.23 638.8L409.86 638.99L409.48 639.16L409.1 639.31L408.7 639.45L408.3 639.58L407.89 639.69L407.48 639.78L407.06 639.86L406.64 639.92L406.21 639.96L405.77 639.99L405.33 640L234.67 640L234.23 639.99L233.79 639.96L233.36 639.92L232.94 639.86L232.52 639.78L232.1 639.69L231.7 639.58L231.3 639.45L230.9 639.31L230.51 639.16L230.14 638.99L229.76 638.8L229.4 638.61L229.05 638.4L228.7 638.17L228.37 637.94L228.04 637.69L227.72 637.43L227.42 637.15L227.12 636.87L226.84 636.57L226.57 636.27L226.31 635.95L226.06 635.63L225.82 635.29L225.6 634.95L225.39 634.59L225.19 634.23L225.01 633.86L224.84 633.48L224.68 633.09L224.54 632.7L224.42 632.3L224.31 631.89L224.22 631.48L224.14 631.06L224.08 630.63L224.03 630.2L224.01 629.77L224 629.33L224 416L10.67 416L10.23 415.99L9.79 415.96L9.36 415.92L8.94 415.86L8.52 415.78L8.1 415.69L7.7 415.58L7.3 415.45L6.9 415.31L6.51 415.16L6.14 414.99L5.76 414.8L5.4 414.61L5.05 414.4L4.7 414.17L4.37 413.94L4.04 413.69L3.72 413.43L3.42 413.15L3.12 412.87L2.84 412.57L2.57 412.27L2.31 411.95L2.06 411.63L1.82 411.29L1.6 410.95L1.39 410.59L1.19 410.23L1.01 409.86L0.84 409.48L0.68 409.09L0.54 408.7L0.42 408.3L0.31 407.89L0.22 407.48L0.14 407.06L0.08 406.63L0.03 406.2L0.01 405.77L0 405.33L0 234.66L0.01 234.22L0.03 233.79L0.08 233.36L0.14 232.93L0.22 232.51L0.31 232.1L0.42 231.69L0.54 231.29L0.68 230.9L0.84 230.51L1.01 230.13L1.19 229.76L1.39 229.4L1.6 229.05L1.82 228.7L2.06 228.36L2.31 228.04L2.57 227.72L2.84 227.42L3.12 227.12L3.42 226.84L3.72 226.56L4.04 226.3L4.37 226.05L4.7 225.82L5.05 225.59L5.4 225.38L5.76 225.19L6.14 225L6.51 224.83L6.9 224.68L7.3 224.54L7.7 224.41L8.1 224.31L8.52 224.21L8.94 224.14L9.36 224.07L9.79 224.03L10.23 224L10.67 224L224 224L224 10.66L224.01 10.22L224.03 9.79L224.08 9.36L224.14 8.93L224.22 8.51L224.31 8.1L224.42 7.69L224.54 7.29L224.68 6.9L224.84 6.51L225.01 6.13L225.19 5.76L225.39 5.4L225.6 5.05L225.82 4.7L226.06 4.36L226.31 4.04L226.57 3.72L226.84 3.42L227.12 3.12L227.42 2.84L227.72 2.56L228.04 2.3L228.37 2.05L228.7 1.82L229.05 1.59L229.4 1.38L229.76 1.19L230.14 1L230.51 0.83L230.9 0.68L231.3 0.54L231.7 0.41L232.1 0.31L232.52 0.21L232.94 0.14L233.36 0.07L233.79 0.03L234.23 0L234.67 0L405.33 0L405.77 0L406.21 0.03Z" id="b5skPhWCP"></path><clipPath id="clipe1n3hKDPy"><use xlink:href="#b5skPhWCP" opacity="1"></use></clipPath></defs><g><g><g><use xlink:href="#b5skPhWCP" opacity="1" fill="#ee99ff" fill-opacity="1"></use><g clip-path="url(#clipe1n3hKDPy)"><use xlink:href="#b5skPhWCP" opacity="1" fill-opacity="0" stroke="#ff00ff" stroke-width="20" stroke-opacity="1"></use></g></g></g></g></svg>